<mxfile host="Electron" modified="2023-11-04T17:38:28.566Z" agent="Mozilla/5.0 (Windows NT 10.0; Win64; x64) AppleWebKit/537.36 (KHTML, like Gecko) draw.io/21.4.0 Chrome/112.0.5615.204 Electron/24.5.1 Safari/537.36" etag="eaLN4aB9jQS3CAY-nFZl" version="21.4.0" type="device">
  <diagram name="Page-1" id="sl60tot-cfiaRbylI1Li">
    <mxGraphModel dx="1036" dy="606" grid="1" gridSize="10" guides="1" tooltips="1" connect="1" arrows="1" fold="1" page="1" pageScale="1" pageWidth="850" pageHeight="1100" math="0" shadow="0">
      <root>
        <mxCell id="0" />
        <mxCell id="1" parent="0" />
        <mxCell id="sKrpmMFDSdfUeh30Tr3f-1" value="" style="rounded=0;whiteSpace=wrap;html=1;fillColor=none;" parent="1" vertex="1">
          <mxGeometry x="120" y="80" width="560" height="310" as="geometry" />
        </mxCell>
        <mxCell id="sKrpmMFDSdfUeh30Tr3f-3" value="&lt;font style=&quot;font-size: 24px;&quot;&gt;&lt;b style=&quot;font-size: 24px;&quot;&gt;LIÊN HỆ CSKH&lt;/b&gt;&lt;/font&gt;" style="text;html=1;fillColor=none;align=center;verticalAlign=middle;whiteSpace=wrap;rounded=0;fontSize=24;" parent="1" vertex="1">
          <mxGeometry x="260" y="120" width="285" height="60" as="geometry" />
        </mxCell>
        <mxCell id="sKrpmMFDSdfUeh30Tr3f-19" value="" style="rounded=0;whiteSpace=wrap;html=1;fillColor=none;" parent="1" vertex="1">
          <mxGeometry x="160" y="115" width="480" height="185" as="geometry" />
        </mxCell>
        <mxCell id="sKrpmMFDSdfUeh30Tr3f-21" value="" style="rounded=0;whiteSpace=wrap;html=1;align=left;fillColor=none;" parent="1" vertex="1">
          <mxGeometry x="160" y="300" width="480" height="60" as="geometry" />
        </mxCell>
        <mxCell id="sKrpmMFDSdfUeh30Tr3f-23" value="" style="html=1;verticalLabelPosition=bottom;align=center;labelBackgroundColor=#ffffff;verticalAlign=top;strokeWidth=2;shadow=0;dashed=0;shape=mxgraph.ios7.icons.trashcan;fillColor=none;" parent="1" vertex="1">
          <mxGeometry x="590" y="315" width="24" height="30" as="geometry" />
        </mxCell>
        <mxCell id="sKrpmMFDSdfUeh30Tr3f-24" value="" style="html=1;verticalLabelPosition=bottom;align=center;labelBackgroundColor=#ffffff;verticalAlign=top;strokeWidth=2;shadow=0;dashed=0;shape=mxgraph.ios7.icons.pointer;fillColor=none;" parent="1" vertex="1">
          <mxGeometry x="530" y="315" width="30" height="30" as="geometry" />
        </mxCell>
        <mxCell id="sKrpmMFDSdfUeh30Tr3f-25" value="&#xa;&lt;b style=&quot;border-color: var(--border-color); color: rgb(0, 0, 0); font-family: Helvetica; font-size: 12px; font-style: normal; font-variant-ligatures: normal; font-variant-caps: normal; letter-spacing: normal; orphans: 2; text-align: left; text-indent: 0px; text-transform: none; widows: 2; word-spacing: 0px; -webkit-text-stroke-width: 0px; text-decoration-thickness: initial; text-decoration-style: initial; text-decoration-color: initial;&quot;&gt;&lt;font style=&quot;border-color: var(--border-color); font-size: 15px;&quot;&gt;&amp;nbsp; &amp;nbsp;NHẬP TIN NHẮN Ở ĐÂY ...&lt;/font&gt;&lt;/b&gt;&#xa;&#xa;" style="text;html=1;fillColor=none;align=center;verticalAlign=middle;whiteSpace=wrap;rounded=0;labelBackgroundColor=none;" parent="1" vertex="1">
          <mxGeometry x="175" y="320" width="230" height="40" as="geometry" />
        </mxCell>
        <mxCell id="sKrpmMFDSdfUeh30Tr3f-26" value="" style="rounded=0;whiteSpace=wrap;html=1;fillColor=none;" parent="1" vertex="1">
          <mxGeometry x="620" y="115" width="20" height="185" as="geometry" />
        </mxCell>
        <mxCell id="sKrpmMFDSdfUeh30Tr3f-27" value="Hãy bắt đầu bằng một lời chào" style="text;html=1;fillColor=none;align=center;verticalAlign=middle;whiteSpace=wrap;rounded=0;fontSize=15;" parent="1" vertex="1">
          <mxGeometry x="297.5" y="180" width="210" height="30" as="geometry" />
        </mxCell>
      </root>
    </mxGraphModel>
  </diagram>
</mxfile>
